<svg xmlns="http://www.w3.org/2000/svg"><defs><font horiz-adv-x="724"><font-face units-per-em="2048" ascent="1505" descent="-543"/><glyph horiz-adv-x="2048"/><glyph horiz-adv-x="2048"/><glyph horiz-adv-x="2048"/><glyph horiz-adv-x="315"/><glyph horiz-adv-x="315"/><glyph horiz-adv-x="315"/><glyph unicode="!" horiz-adv-x="387" d="M74 1505l55-1099h129l55 1099h-239zm12-1505h215v227h-215v-227z"/><glyph unicode=""" horiz-adv-x="532" d="M78 1505l31-551h153l31 551h-215zm254 0l30-551h154l31 551h-215z"/><glyph unicode="#" horiz-adv-x="1232" d="M49 438h199l-60-438h197l59 438h261l-60-438h197l59 438h191l26 195h-190l37 258h192l27 194h-193l58 420h-197l-57-420h-260l57 420h-197l-57-420h-197l-26-194h196l-37-258h-198zm422 195l37 258h260l-37-258h-260z"/><glyph unicode="$" horiz-adv-x="692" d="M37 358q3-134 61-227 64-103 189-125v-221h123v217q127 14 192 127 53 90 53 242 0 65-18 127-36 106-119 225-9 13-32.5 47t-36.5 51q-78 102-115 166-58 97-58 172 0 57 21 111 20 51 63 51 44 1 65-33t28-92l192 25q-14 118-63 186-62 85-172 96v125h-123v-131q-115-25-170-131-45-86-45-211 0-66 20-125 30-100 117-227 52-77 129-176 42-62 55-84 58-100 58-174 0-77-21-127-23-58-72-58-63 0-96 58-30 49-33 129z"/><glyph unicode="%" horiz-adv-x="1001" d="M55 911q0-48 19-88 43-88 141-88 60 0 90 27 65 56 68 149v437q-3 48-21 86-21 40-52 64t-85 24q-62 0-92-27-68-59-68-147v-437zm103-911h137l547 1505h-131zm20 911v437q-2 10 2 26 12 29 35 29 16 0 21-8 14-21 14-47v-437q0-55-35-55-42 0-37 55zm453-753q0-50 18-88 46-86 142-86 61 0 90 26 64 55 67 148v436q-3 50-20 88-21 40-52 64t-85 24q-63 0-93-27-67-58-67-149v-436zm123 0v436q-2 11 2 27 4 9 7 14t10 9.5 18 4.5q15 0 20-8 14-21 14-47v-436q0-13-4-29-12-29-30-29-16 0-23 11-16 20-14 47z"/><glyph unicode="&" horiz-adv-x="854" d="M49 315q0-132 86-231 87-100 217-100t252 139q38-41 68-62 74-55 112-69 19-8 29-8v235q-8 3-35 23-19 12-57 53 45 91 70 207 17 78 22 151l-176 33q-26-152-47-211-63 93-148 285 94 124 148 227 97 181 28 371-62 164-235 164-105 0-160-52-107-98-110-276 0-226 106-442-40-61-63.5-101.5t-51.5-99-41.5-117-13.5-119.5zm214 5q-5 64 5 104 15 88 45 133 65-120 174-295-24-30-38.5-45t-37.5-28-49-13q-42 0-69 43-25 37-30 101zm48 950q16 76 72 76 33 0 49-23 32-43 29-123 0-95-101-252-32 79-41 125-26 111-8 197z"/><glyph unicode="'" horiz-adv-x="309" d="M57 1505l31-551h154l30 551h-215z"/><glyph unicode="(" horiz-adv-x="561" d="M66 645q0-198 45-362 84-326 247-580l162 84q-72 103-129 238-129 301-129 620 0 192 41 350 79 311 217 510l-162 84q-81-127-147-280-145-337-145-664z"/><glyph unicode=")" horiz-adv-x="561" d="M41-213l162-84q79 125 145 279 148 344 148 663 0 198-45 365-84 313-248 579l-162-84q72-110 129-239 129-315 129-621 0-190-41-348-83-316-217-510z"/><glyph unicode="*" horiz-adv-x="677" d="M74 1251l172-34-115-138 131-80 76 152 78-152 131 80-115 138 172 34-43 148-164-70 19 176h-154l19-176-164 70z"/><glyph unicode="+" horiz-adv-x="1060" d="M74 649h370v-346h172v346h371v172h-371v346h-172v-346h-370v-172z"/><glyph unicode="," horiz-adv-x="309" d="M45 0h72l-72-266h102l113 266v227h-215v-227z"/><glyph unicode="-" horiz-adv-x="444" d="M74 455h297v194h-297v-194z"/><glyph unicode="." horiz-adv-x="321" d="M53 0h215v227h-215v-227z"/><glyph unicode="/" horiz-adv-x="720" d="M8-147h168l537 1652h-162z"/><glyph unicode="0" d="M68 309q3-97 36-164 30-67 86-110 63-51 172-51 107 0 170 51 61 46 89 110 33 67 36 164v887q-3 95-36 162-29 67-89 112-69 52-170 52-103 0-172-52-55-42-86-112-33-67-36-162v-887zm221 0v887q0 34 8 55 17 56 65 56 29 0 46-17 28-35 28-94v-887q0-36-8-55-14-55-66-55-27 0-43 16-30 35-30 94z"/><glyph unicode="1" horiz-adv-x="475" d="M25 1180h147v-1180h221v1505h-133q-17-38-49-78-81-86-186-106v-141z"/><glyph unicode="2" horiz-adv-x="731" d="M55 0h600v219h-350q129 217 217 422 129 305 129 506 0 174-61 266-74 109-234 109-166 0-237-119-58-97-58-270v-105h222v105q0 80 14 129 17 55 59 55 44 0 62-62 12-42 12-122-3-120-63-299-51-151-127-297-88-170-185-318v-219z"/><glyph unicode="3" horiz-adv-x="686" d="M45 1071h217q0 148 14 205 10 51 52 51 48 0 61-65 8-39 8-129v-121q0-52-14-80-13-32-49-47.5t-105-20.5v-184h19q65-3 108-27 62-41 62-155-2-39-2-129t-8-127q-14-64-62-64-21 0-34.5 11.5t-22.5 41.5q-19 62-19 203h-217q0-190 43-289 68-161 250-161 71 0 119 26 87 48 129 160 33 96 37 172 2 23 2 43 0 149-27 252.5t-100 161.5l2 2q54 54 80 145t26 252q0 96-39 176-72 148-247 148-178 0-244-160-39-97-39-291z"/><glyph unicode="4" horiz-adv-x="684" d="M25 328h342v-328h202v328h103v194h-103v983h-221l-323-983v-194zm188 194l129 471 12 45h13v-516h-154z"/><glyph unicode="5" horiz-adv-x="704" d="M74 438q0-204 43-301 66-153 245-153 177 0 246 145 43 88 43 248v336q0 93-37 174-63 137-208 137-24 3-46-6-34-11-81-45v313h344v219h-535v-792h186q0 30 25 69 29 41 61 41 34 0 52-30.5t18-79.5v-336q0-112-16-158-15-43-52-43-38 0-53 45-14 41-14 158v59h-221z"/><glyph unicode="6" horiz-adv-x="700" d="M66 309q0-109 43-188 72-137 245-137 174 0 246 137 43 79 43 188v307q0 115-37 191-62 127-209 127-47 0-110-37v268q0 87 14 125 12 39 53 39 25 0 38.5-12t19.5-41q10-49 10-205h221v94q0 139-41 219-73 138-248 138t-248-138q-40-78-40-219v-856zm221-65v456q2 22 18.5 42t48.5 20q31 0 49.5-24.5t18.5-43.5v-450q0-19-18.5-43.5t-49.5-24.5q-33 0-50 24t-17 44z"/><glyph unicode="7" horiz-adv-x="589" d="M8 1286h332l-225-1286h229l221 1284v221h-557v-219z"/><glyph unicode="8" horiz-adv-x="696" d="M53 322q0-41 13-105 18-92 77-154 75-79 205-79t205 79q60 63 78 154 12 59 12 105v176q0 87-29.5 165.5t-85.5 131.5q50 50 76.5 123t26.5 153v127q0 100-37 176-72 148-246 148-172 0-244-148-38-78-38-176v-127q0-80 26-153t76-123q-56-53-85.5-131.5t-29.5-165.5v-176zm217.5 94q-1.5 129 10.5 194 9 66 67 66t70-66q10-72 10-200 0-99-10-164-12-60-70-60-46 0-61 52-15 49-16.5 178zm14 704q1.5 118 14.5 162 12 45 49 45 43 0 55-51 11-64 11-156 0-108-11-172-12-55-55-55-44 0-53 55-12 54-10.5 172z"/><glyph unicode="9" horiz-adv-x="700" d="M57 340q0-139 41-217 71-139 248-139t248 139q41 78 41 217v856q0 108-43 190-74 136-246 136t-246-136q-43-82-43-190v-293q0-114 37-190 62-127 209-127 48 0 111 37v-283q0-81-13-125-14-39-55-39-25 0-38 12t-19 41q-10 49-10 205h-222v-94zm222 485v437q0 19 18 43t49 24q34 0 51-23.5t17-43.5v-443q-2-22-19-41.5t-49-19.5q-31 0-49 24t-18 43z"/><glyph unicode=":" horiz-adv-x="362" d="M74 0h215v227h-215v-227zm0 893h215v227h-215v-227z"/><glyph unicode=";" horiz-adv-x="362" d="M74 0h71l-71-266h102l113 266v227h-215v-227zm0 893h215v227h-215v-227z"/><glyph unicode="<" horiz-adv-x="1058" d="M74 649l911-475v199l-698 356 698 356v199l-911-475v-160z"/><glyph unicode="=" horiz-adv-x="1058" d="M74 477h911v172h-911v-172zm0 387h911v172h-911v-172z"/><glyph unicode=">" horiz-adv-x="1058" d="M74 174l911 475v160l-911 475v-199l698-356-698-356v-199z"/><glyph unicode="?" horiz-adv-x="645" d="M25 1260l178-84q18 54 43 90 41 55 88 55 40 0 59-37 12-30 8-57-9-42-53-113-64-105-92-182-45-123-45-270v-256h190v256q0 51 13 108 21 88 71 172 8 13 21 35.5t18 30.5q29 50 41.5 73.5t25.5 65 13 80.5q0 98-45 172-68 111-221 114-126 3-217-100-75-84-96-153zm174-1260h215v227h-215v-227z"/><glyph unicode="@" horiz-adv-x="872" d="M66 303q0-42 18-94.5t57-99.5q101-125 299-125 214 0 320 143l-152 86q-51-63-168-63-99 0-151 59-39 42-39 94v889q0 49 39 96 54 62 151 62 100 0 154-62 37-45 37-96v-45q-6 12-27 33-38 34-86 34-77 0-111-47t-34-123v-485q0-172 145-172 28 0 51 10 43 21 62 58l20-56h164v793q0 43-18 99t-56 104q-103 127-301 127-199 0-299-127-39-48-57-103.5t-18-99.5v-889zm469 270v455q0 53 47 53 23 0 36-14t13-39v-455q0-53-49-53-47 0-47 53z"/><glyph unicode="A" horiz-adv-x="765" d="M20 0h216l40 307h213l41-307h215l-227 1505h-270zm287 541l64 475 6 39h12l6-39 64-475h-152z"/><glyph unicode="B" horiz-adv-x="745" d="M82 0h272q188 9 271 135 71 109 71 291 0 114-24 184-48 139-129 185 77 71 108 137 29 62 29 174 0 216-102 311-95 88-302 88h-194v-1505zm221 219v463q66 0 98-23 66-48 66-208 0-161-66-209-32-23-98-23zm0 666v401q65 0 98-22 66-45 66-179 0-133-66-178-33-22-98-22z"/><glyph unicode="C" horiz-adv-x="708" d="M68 309q3-97 36-164 30-67 86-110 63-51 172-51 107 0 170 51 61 46 89 110 33 67 36 164v207h-206v-207q0-34-9-55-18-55-75-55-27 0-43 16-32 37-35 94v887q4 39 10 55 21 56 68 56 34 0 51-17 33-36 33-94v-207h206v207q-3 95-36 162-29 67-89 112-69 52-170 52-103 0-172-52-55-42-86-112-33-67-36-162v-887z"/><glyph unicode="D" horiz-adv-x="761" d="M82 0h174q156 0 243.5 35.5t131.5 120.5q40 80 52.5 215t12.5 381q0 247-12.5 382.5t-52.5 215.5q-44 85-131 120t-244 35h-174v-1505zm221 221v1063q63 0 94-15t47-65q18-68 21-160 2-72 2-290 0-219-2-291-3-96-21-160-16-52-47-67t-94-15z"/><glyph unicode="E" horiz-adv-x="628" d="M82 0h506v227h-285v414h205v242h-205v395h285v227h-506v-1505z"/><glyph unicode="F" horiz-adv-x="616" d="M82 0h221v655h205v228h-205v395h305v227h-526v-1505z"/><glyph unicode="G" horiz-adv-x="737" d="M68 309v-18q0-82 24-146 26-66 78-110 57-51 158-51t172 88l26-72h131v750h-309v-187h88v-272q0-36-8-55-14-56-66-56-26 0-43 17-30 35-30 94v905q0 34 8 55 17 56 65 56 29 0 46-17 28-35 28-94v-231h221v231q-3 95-36 162-29 67-89 112-69 52-170 52-103 0-172-52-55-42-86-112-33-67-36-162v-887z"/><glyph unicode="H" horiz-adv-x="778" d="M82 0h221v655h172v-655h221v1505h-221v-622h-172v622h-221v-1505z"/><glyph unicode="I" horiz-adv-x="385" d="M82 0h221v1505h-221v-1505z"/><glyph unicode="J" horiz-adv-x="423" d="M12-14q20-1 39-1 154 0 230 81 71 77 71 213v1226h-221v-1192q0-52-18-73-29-38-80-38-10 0-21 1v-217z"/><glyph unicode="K" horiz-adv-x="768" d="M82 0h221v532l51 123 13 31h6l6-31 153-655h216l-230 1010 203 495h-215l-184-501-11-25h-8v526h-221v-1505z"/><glyph unicode="L" horiz-adv-x="604" d="M82 0h514v205h-293v1300h-221v-1505z"/><glyph unicode="M" horiz-adv-x="991" d="M82 0h205v1010h12l8-64 142-946h94l141 946 8 64h13v-1010h204v1505h-270l-131-688-10-80h-4l-11 80-131 688h-270v-1505z"/><glyph unicode="N" horiz-adv-x="808" d="M82 0h203v854h12l18-70 215-784h197v1505h-203v-854h-12l-18 70-215 784h-197v-1505z"/><glyph unicode="O" d="M68 309q3-97 36-164 30-67 86-110 63-51 172-51 107 0 170 51 61 46 89 110 33 67 36 164v887q-3 95-36 162-29 67-89 112-69 52-170 52-103 0-172-52-55-42-86-112-33-67-36-162v-887zm221 0v887q0 34 8 55 17 56 65 56 29 0 46-17 28-35 28-94v-887q0-36-8-55-14-55-66-55-27 0-43 16-30 35-30 94z"/><glyph unicode="P" horiz-adv-x="720" d="M82 0h221v602q162 0 266 98 123 116 123 355 0 240-123 356-99 94-266 94h-221v-1505zm221 827v453q99 0 135-53 31-46 31-180 0-132-31-173-34-47-135-47z"/><glyph unicode="Q" horiz-adv-x="729" d="M68 309q3-97 36-164 30-67 86-110 63-51 172-51 55 0 111 18 72-117 227-117v189q-58 11-88 53 24 56 27 66 18 65 18 116v887q-3 95-36 162-29 67-89 112-69 52-170 52-103 0-172-52-55-42-86-112-33-67-36-162v-887zm221 0v887q0 34 8 55 17 56 65 56 29 0 46-17 28-35 28-94v-887q0-36-8-55-14-55-66-55-27 0-43 16-30 35-30 94z"/><glyph unicode="R" horiz-adv-x="739" d="M82 0h221v635h59l115-635h221l-141 729q61 41 92 132.5t31 209.5q0 217-91 325.5t-286 108.5h-221v-1505zm221 840v446q70 0 105-31 59-52 59-192 0-139-59-191-36-32-105-32z"/><glyph unicode="S" horiz-adv-x="702" d="M37 422q0-203 55-303 74-135 266-135 167 0 244 114 64 95 64 264 0 107-66 236-41 80-141 229-94 137-119 181-55 95-55 161 0 147 75 150 48 0 72-70 17-52 17-147l217 20q0 160-56 267-71 133-246 133h-8q-143-3-223-115-65-94-65-238 0-61 18-120 34-117 109-234 74-115 139-207 30-46 57-90 58-104 58-166 0-166-91-166-63 0-86 82-18 53-18 174z"/><glyph unicode="T" horiz-adv-x="647" d="M4 1278h209v-1278h221v1278h209v227h-639v-227z"/><glyph unicode="U" horiz-adv-x="749" d="M80 309q3-95 37-164 30-67 86-110 63-51 172-51 107 0 170 51 59 45 88 110 34 69 37 164v1196h-221v-1196q0-34-9-55-14-55-65-55-27 0-43 16-31 36-31 94v1196h-221v-1196z"/><glyph unicode="V" horiz-adv-x="716" d="M18 1505l230-1505h221l229 1505h-215l-110-827-8-64h-13l-8 64-111 827h-215z"/><glyph unicode="W" horiz-adv-x="1036" d="M25 1505l202-1505h172l103 713 12 88h8l13-88 102-713h172l203 1505h-205l-88-782-4-49h-17l-6 49-94 782h-160l-94-782-6-49h-16l-5 49-88 782h-204z"/><glyph unicode="X" horiz-adv-x="737" d="M16 0h217l127 449 5 18h8l4-18 127-449h217l-244 791 240 714h-217l-121-381-6-18h-8l-7 18-120 381h-218l240-714z"/><glyph unicode="Y" horiz-adv-x="700" d="M14 1505l226-864v-641h221v641l225 864h-217l-111-481-6-14h-4l-6 14-111 481h-217z"/><glyph unicode="Z" horiz-adv-x="626" d="M20 0h586v219h-352l352 1067v219h-536v-219h297l-347-1048v-238z"/><glyph unicode="[" horiz-adv-x="538" d="M82-213h399v197h-202v1325h202v196h-399v-1718z"/><glyph unicode="\" horiz-adv-x="792" d="M8 1692l608-1872h168l-614 1872h-162z"/><glyph unicode="]" horiz-adv-x="538" d="M57-16v-197h400v1718h-400v-196h203v-1325h-203z"/><glyph unicode="^" horiz-adv-x="1101" d="M53 809h199l299 543 299-543h199l-381 696h-234z"/><glyph unicode="_" horiz-adv-x="1210" d="M74-154v-172h1063v172h-1063z"/><glyph unicode="`" horiz-adv-x="1024" d="M293 1489l162-184h159l-106 184h-215z"/><glyph unicode="a" horiz-adv-x="661" d="M49 260q0-154 64-225 41-51 102-51 60 0 109 39 35 28 57 67h14q0-66 19-90h202q-14 86-14 195v688q0 109-76 182-75 72-176 72-120 0-198-88-80-90-80-211v-47h207v53q0 21 4 53 11 59 55 59 37 0 51-34 6-20 6-68v-123q-2-5-5-9.5t-9-9.5-11.5-8.5-15.5-9-16.5-9-20-10.5-20.5-11q-104-55-162-127-86-107-86-277zm203 31q0 84 35.5 151.5t107.5 98.5v-287q0-29-25-48.5t-61-19.5q-33 0-47 43-10 29-10 62z"/><glyph unicode="b" horiz-adv-x="686" d="M82 0h207v74q34-30 53-45 61-45 111-45 75 0 122 75 37 61 37 144v715q0 81-37 145-49 74-122 74-31 0-58-15-50-22-106-75v458h-207v-1505zm207 246v628q0 25 19 46.5t42 21.5 39.5-19.5 16.5-48.5v-628q0-29-16.5-48.5t-39.5-19.5q-24 0-42.5 19.5t-18.5 48.5z"/><glyph unicode="c" horiz-adv-x="645" d="M66 315q0-179 75-260 65-71 189-71 136 0 198 67 68 74 68 254v109h-207v-156q0-52-12-71t-47-19q-26 0-39.5 15.5t-16 32-2.5 42.5v604q0 26 2.5 42.5t16 32 39.5 15.5q35 0 47-19t12-71v-135h207v88q0 180-68 254-62 68-198 68-123 0-189-72-75-81-75-260v-490z"/><glyph unicode="d" horiz-adv-x="686" d="M74 203q0-85 39-144 44-75 120-75 32 0 60 14 46 21 104 76v-74h207v1505h-207v-458q-34 30-53 45-61 45-111 45-75 0-120-74-39-62-39-145v-715zm207 43v628q0 29 16 48.5t39 19.5 42-21.5 19-46.5v-628q0-29-18.5-48.5t-42.5-19.5q-23 0-39 19.5t-16 48.5z"/><glyph unicode="e" horiz-adv-x="659" d="M66 279q3-78 32-148 66-147 234-147 101 0 155 45 55 44 81.5 102t31.5 141v129h-192v-122q0-34-9-58-14-55-65-55-27 0-43 16-30 39-33 97v243h342v326q-3 71-33 143-67 146-233 146-103 0-154-45-105-87-114-250v-563zm192 405v158q3 39 10 57 18 57 66 57 29 0 45-16 29-36 29-98v-158h-150z"/><glyph unicode="f" horiz-adv-x="475" d="M20 934h105v-934h207v934h104v186h-104v78q0 32 6 62 14 69 59 69 15 0 43-4 3-1 9.5-2t9.5-2v178l-25 6q-21 8-72 8-154 0-206-137-31-81-31-225v-31h-105v-186z"/><glyph unicode="g" horiz-adv-x="700" d="M12-184q0-117 92-168 79-46 240-49 146 0 242 61 112 73 112 225 0 130-94 197-71 48-192 63-68 10-107 23-51 13-51 47 0 25 29 51 6-2 20-2h19q96 0 151 43 106 81 115 234v317q0 15-2 21t-2 22q-2 4-6 27 43 24 120 24v185q-43 0-98-41-33-23-72-62-73 103-206 103-99 0-150-45-101-83-113-240v-305q2-35 17-92 28-103 102-152-48-25-86-72-43-53-43-96 0-116 125-149-71-33-111-70-51-48-51-100zm201 34q0 55 76 99l106-21q70-11 94-32 17-17 17-48 0-36-53-57-46-18-105-18-68 0-101.5 21t-33.5 56zm49 687v307q-1 8-1 16 0 18 5 35 12 51 56 51 25 0 38-16 25-36 25-86v-307q0-31-6-52-16-49-57-49-23 0-37 17-23 26-23 73v11z"/><glyph unicode="h" horiz-adv-x="690" d="M82 0h207v883q6 10 18 26 27 27 49 27 50 0 50-49v-887h206v918q0 81-37 145-45 74-118 74-27 0-54-15-37-20-90-73-22-22-24-23v479h-207v-1505z"/><glyph unicode="i" horiz-adv-x="370" d="M82 0h207v1120h-207v-1120zm0 1298h207v207h-207v-207z"/><glyph unicode="j" horiz-adv-x="364" d="M-45-182v-191q12-4 20-6 21-6 70-6 157 0 209 135 29 74 29 221v1149h-207v-1194q0-21-4-53-14-63-60-63-11 0-39 4-3 1-9 2t-9 2zm121 1480h207v207h-207v-207z"/><glyph unicode="k" horiz-adv-x="641" d="M82 0h207v387l26 66 7 16h10l4-16 102-453h199l-188 756 149 364h-186l-101-293-12-36h-10v714h-207v-1505z"/><glyph unicode="l" horiz-adv-x="370" d="M82 0h207v1505h-207v-1505z"/><glyph unicode="m" horiz-adv-x="1021" d="M82 0h207v883q6 10 22 26 27 27 56 27 55 0 55-49v-887h194v883q4 8 23 26 27 27 55 27 56 0 56-49v-887h194v918q0 81-37 145-45 74-119 74-24 0-55-17-61-36-100-78-21-21-33-30-44 125-139 125-26 0-53-15-48-26-95-73-22-22-24-23v94h-207v-1120z"/><glyph unicode="n" horiz-adv-x="690" d="M82 0h207v883q6 10 18 26 27 27 49 27 50 0 50-49v-887h206v918q0 81-37 145-45 74-118 74-27 0-54-15-37-20-90-73-22-22-24-23v94h-207v-1120z"/><glyph unicode="o" horiz-adv-x="657" d="M63 279q3-76 33-148 66-147 232-147 101 0 155 45 54 44 80 102.5t31 140.5v576q-3 71-33 143-67 146-233 146-103 0-154-45-102-86-111-250v-563zm195 0v563q-1 8-1 16 0 23 7 41 15 57 64 57 29 0 45-16 26-33 26-87v-574q1-8 1-16 0-24-7-42-14-55-65-55-27 0-43 16-27 35-27 86v11z"/><glyph unicode="p" horiz-adv-x="686" d="M82-385h207v459q34-30 53-45 61-45 111-45 75 0 122 75 37 61 37 144v715q0 81-37 145-49 74-122 74-31 0-58-15-50-22-106-75v73h-207v-1505zm207 631v628q0 29 18.5 48.5t42.5 19.5q23 0 39.5-19.5t16.5-48.5v-628q0-29-16.5-48.5t-39.5-19.5-42 21.5-19 46.5z"/><glyph unicode="q" horiz-adv-x="686" d="M74 203q0-85 39-144 44-75 120-75 32 0 60 14 46 21 104 76v-459h207v1505h-207v-73q-34 30-53 45-61 45-111 45-75 0-120-74-39-62-39-145v-715zm207 43v628q0 29 16 48.5t39 19.5q24 0 42.5-19.5t18.5-48.5v-628q0-25-19-46.5t-42-21.5-39 19.5-16 48.5z"/><glyph unicode="r" horiz-adv-x="503" d="M82 0h207v778q0 65 45 103 36 34 104 34 34 0 58-8v230q-94 0-158-60-22-22-34.5-45t-14.5-37v125h-207v-1120z"/><glyph unicode="s" horiz-adv-x="630" d="M37 326q0-131 49-215 74-127 240-127 132 0 206 102 58 81 58 205 0 93-62 194-33 52-129 148-60 56-90 96-45 55-45 105 0 56 12 86 14 45 52 45 41 0 59-45 8-27 8-86h193q0 131-41 200-61 103-214 103h-9q-132-3-201-103-51-77-51-200 0-105 63-199 35-52 133-146 42-42 64-66.5t43.5-62 21.5-69.5q0-135-71-135-55 0-80 63-17 40-17 107h-192z"/><glyph unicode="t" horiz-adv-x="501" d="M20 934h105v-574q0-154 31-237 52-139 206-139 50 0 80 6 5 1 15.5 4t15.5 4v203q-4-1-12-2t-12-2q-28-4-52-4-43 0-57 67-8 37-8 117v557h141v186h-141v277h-207v-277h-105v-186z"/><glyph unicode="u" horiz-adv-x="690" d="M78 203q0-83 37-144 44-75 118-75 27 0 56 16 35 19 90 74 18 18 22 20v-94h207v1120h-207v-882q-13-22-18-27-27-27-49-27-23 0-36 10t-13 39v887h-207v-917z"/><glyph unicode="v" horiz-adv-x="602" d="M16 1120l183-1120h204l183 1120h-201l-68-649-8-72h-16l-8 72-68 649h-201z"/><glyph unicode="w" horiz-adv-x="905" d="M20 1120l166-1120h172l80 535 11 63h8l10-63 80-535h172l166 1120h-189l-65-585-8-64h-13l-10 64-86 585h-123l-86-585-10-64h-12l-9 64-65 585h-189z"/><glyph unicode="x" horiz-adv-x="618" d="M16 0h201l84 283 6 30h4l6-30 84-283h201l-192 578 176 542h-195l-74-262-6-31h-4l-6 31-74 262h-194l176-542z"/><glyph unicode="y" horiz-adv-x="634" d="M25 1120l190-1153q0-34-8-61-18-65-68-103-21-16-55.5-19t-38.5 1q-10 0-12 2v-184q50-4 67-4h25q114 0 197 100 74 89 90 217l198 1204h-202l-82-688-4-57h-9l-4 57-82 688h-202z"/><glyph unicode="z" horiz-adv-x="532" d="M12 0h504v188h-285l285 764v168h-459v-188h240l-285-764v-168z"/><glyph unicode="{" horiz-adv-x="688" d="M61 453q73-3 107-62 25-46 25-78v-397q0-116 24-188t76-113q50-39 131.5-54.5t206.5-13.5v172q-72 0-116 7.5t-71 29.5q-55 44-55 160v397q0 76-32 129t-95 93q63 39 95 91t32 130v397q0 116 55 160 27 22 71 29.5t116 7.5v172q-125 2-206.5-13.5t-131.5-54.5q-52-41-76-113t-24-188v-397q0-37-25-80-33-60-107-60v-163z"/><glyph unicode="|" horiz-adv-x="356" d="M82-512h192v2204h-192v-2204z"/><glyph unicode="}" horiz-adv-x="688" d="M57-281v-172q126-2 208 13.5t132 54.5q52 41 75.5 113t23.5 188v397q0 34 24 78 34 59 107 62v163q-74 0-107 60-24 41-24 80v397q0 116-23.5 188t-75.5 113q-50 39-132 54.5t-208 13.5v-172q72 0 116-7.5t71-29.5q55-44 55-160v-397q0-78 32-130t95-91q-63-40-95-93t-32-129v-397q0-116-55-160-27-22-71-29.5t-116-7.5z"/><glyph unicode="~" horiz-adv-x="1280" d="M113 1352l135-58q14 40 47 90 64 91 154 91 70 0 178-74 54-34 83-50.5t82-33.5 107-17q82 0 145 48 119 94 181 262l-135 57q-20-50-48-92-59-90-143-90-74 0-174 71-6 4-29 18t-31 19-29.5 17-33 16.5-32.5 12.5-38 11-39 6-44 3q-89 0-154-47-128-100-182-260z"/><glyph horiz-adv-x="624" d="M53 1012h215v227h-71l71 266h-102l-113-266v-227zm303 0h215v227h-71l71 266h-102l-113-266v-227z"/><glyph horiz-adv-x="624" d="M53 1012h103l112 266v227h-215v-227h72zm303 0h103l112 266v227h-215v-227h72z"/><glyph unicode="¡" horiz-adv-x="387" d="M74-385h239l-55 1100h-129zm12 1278h215v227h-215v-227z"/><glyph unicode="¢" horiz-adv-x="636" d="M66 508q0-300 208-330v-301h123v303q97 14 144 88.5t47 229.5v108h-189v-155q0-49-18-70t-55-21q-38 0-55 27t-17 64v604q0 36 17 63t55 27q37 0 55-20.5t18-69.5v-135h189v88q0 155-47 229-48 71-144 86v244h-123v-242q-208-30-208-328v-489z"/><glyph unicode="£" horiz-adv-x="817" d="M4 63l146-79q10 30 28 51 37 51 86 51 8 0 16.5-1.5t18.5-4.5 17-6 19.5-9 18-9 20-10.5 19.5-10.5q96-51 144-51 102 0 170.5 99t80.5 282l-188 22q-3-101-29-145-23-42-53-45-39 3-63 22-38 23-70 37 57 117 57 219 0 72-24 174h174v137h-211l-6 25q-24 78-35.5 119t-23 104.5-11.5 114.5q0 70 21 113 23 55 69 55 66 0 92-60 23-53 23-137h213q0 177-66 279-83 126-266 123-152-3-231-123-64-98-64-250 0-84 78-342l6-21h-147v-137h188q31-108 31-174 0-98-37-199-49-8-92-45-73-67-119-168z"/><glyph unicode="¥" horiz-adv-x="720" d="M25 1505l196-753h-147v-138h176v-137h-176v-137h176v-340h221v340h176v137h-176v137h176v138h-147l196 753h-217l-110-481-7-14h-4l-6 14-110 481h-217z"/><glyph unicode="¨" horiz-adv-x="1024" d="M272 1305h191v200h-191v-200zm289 0h191v200h-191v-200z"/><glyph unicode="©" horiz-adv-x="1644" d="M53 752q0-155 60-296t166-247 246-165.5 296-59.5q157 0 298 59.5t247 165.5 165.5 246.5 59.5 296.5q0 157-59.5 297.5t-165.5 246.5-247 166-298 60q-155 0-295.5-60t-246.5-166q-107-107-166.5-247t-59.5-297zm119 0q0 131 51 250t142 210 208 141 248 50q132 0 251-50t210-141 141-209.5 50-250.5q0-131-50-248.5t-141-208.5-210.5-142-250.5-51-248 51-208 142-142 208.5-51 248.5zm455-265q0-52 22-98 50-98 170-98 70 0 109 31 71 60 80 165v125h-138v-125q3-16-4-32-12-31-45-31-18 0-28 10-21 18-21 53v531q0 16 6 31 12 32 43 32 21 0 31-10 21-21 18-53v-125h138v125q-3 52-25 98-50 98-164 98-71 0-112-30-80-64-80-166v-531z"/><glyph unicode="­" horiz-adv-x="444" d="M74 455h297v194h-297v-194z"/><glyph unicode="®" horiz-adv-x="1644" d="M53 752q0-155 60-296t166-247 246-165.5 296-59.5q157 0 298 59.5t247 165.5 165.5 246.5 59.5 296.5q0 157-59.5 297.5t-165.5 246.5-247 166-298 60q-155 0-295.5-60t-246.5-166q-107-107-166.5-247t-59.5-297zm119 0q0 131 51 250t142 210 208 141 248 50q132 0 251-50t210-141 141-209.5 50-250.5q0-131-50-248.5t-141-208.5-210.5-142-250.5-51-248 51-208 142-142 208.5-51 248.5zm453-439h145v365h55l95-365h151l-106 400q56 47 72 95t16 126q0 258-232 258h-196v-879zm145 492v258h45q63 0 84-43 14-29 14-88 0-57-14-86-20-41-84-41h-45z"/><glyph unicode="¯" horiz-adv-x="1024" d="M313 1315h398v162h-398v-162z"/><glyph unicode="´" horiz-adv-x="1024" d="M410 1305h159l162 184h-215z"/><glyph unicode="·" horiz-adv-x="215" d="M0 649h215v228h-215v-228z"/><glyph unicode="¸" horiz-adv-x="1024" d="M426-111v-141h63l-40-133h104l45 133v141h-172z"/><glyph unicode="¿" horiz-adv-x="645" d="M41-106q0-93 47-170 69-114 219-117 125-3 219 102 58 65 95 152l-179 84q-12-46-43-88-40-58-88-58-41 0-57 39-14 28-10 56 9 41 53 112 64 105 92 182 45 133 45 271v256h-190v-256q0-53-13-107-23-97-69-172-8-15-23-38.5t-18-28.5q-29-50-41.5-73.5t-25.5-65-13-80.5zm190 999h215v227h-215v-227z"/><glyph unicode="À" horiz-adv-x="765" d="M20 0h216l40 307h213l41-307h215l-227 1505h-270zm121 1823l162-185h160l-107 185h-215zm166-1282l64 475 6 39h12l6-39 64-475h-152z"/><glyph unicode="Á" horiz-adv-x="765" d="M20 0h216l40 307h213l41-307h215l-227 1505h-270zm273 1638h160l161 185h-215zm14-1097l64 475 6 39h12l6-39 64-475h-152z"/><glyph unicode="Â" horiz-adv-x="765" d="M20 0h216l40 307h213l41-307h215l-227 1505h-270zm113 1638h189l61 72 63-72h189l-141 185h-220zm174-1097l64 475 6 39h12l6-39 64-475h-152z"/><glyph unicode="Ã" horiz-adv-x="765" d="M20 0h216l40 307h213l41-307h215l-227 1505h-270zm164 1632q5 3 33 17 46 16 76 16 51-3 92-20 43-19 88-19 23 0 41 6 42 10 68 33v152q-5-3-33-17-46-16-76-16-44 3-90 22-49 17-90 17-23 0-41-6-43-14-68-33v-152zm123-1091l64 475 6 39h12l6-39 64-475h-152z"/><glyph unicode="Ä" horiz-adv-x="765" d="M20 0h216l40 307h213l41-307h215l-227 1505h-270zm123 1638h191v201h-191v-201zm164-1097l64 475 6 39h12l6-39 64-475h-152zm125 1097h191v201h-191v-201z"/><glyph unicode="Å" horiz-adv-x="765" d="M20 0h216l40 307h213l41-307h215l-227 1505h-270zm211 1761q0-62 45-102.5t109-40.5 108 40.5 44 102.5-44 103-108 41-109-41-45-103zm76-1220l64 475 6 39h12l6-39 64-475h-152zm2 1220q0 29 23 50.5t53 21.5 53-21.5 23-50.5-23-50-53-21-53 21-23 50z"/><glyph unicode="Æ" horiz-adv-x="1099" d="M16 0h220l90 307h227v-307h506v227h-285v414h205v242h-205v395h285v227h-623zm377 541l150 514h10v-514h-160z"/><glyph unicode="Ç" horiz-adv-x="708" d="M68 309q3-97 36-164 30-67 86-110 63-51 172-51 107 0 170 51 61 46 89 110 33 67 36 164v207h-206v-207q0-34-9-55-18-55-75-55-27 0-43 16-32 37-35 94v887q4 39 10 55 21 56 68 56 34 0 51-17 33-36 33-94v-207h206v207q-3 95-36 162-29 67-89 112-69 52-170 52-103 0-172-52-55-42-86-112-33-67-36-162v-887zm200-420v-141h64l-41-133h104l45 133v141h-172z"/><glyph unicode="È" horiz-adv-x="628" d="M82 0h506v227h-285v414h205v242h-205v395h285v227h-506v-1505zm29 1823l161-185h160l-106 185h-215z"/><glyph unicode="É" horiz-adv-x="628" d="M82 0h506v227h-285v414h205v242h-205v395h285v227h-506v-1505zm154 1638h159l162 185h-215z"/><glyph unicode="Ê" horiz-adv-x="628" d="M82 0h506v227h-285v414h205v242h-205v395h285v227h-506v-1505zm2 1638h188l62 72 63-72h189l-142 185h-219z"/><glyph unicode="Ë" horiz-adv-x="628" d="M82 0h506v227h-285v414h205v242h-205v395h285v227h-506v-1505zm12 1638h191v201h-191v-201zm289 0h190v201h-190v-201z"/><glyph unicode="Ì" horiz-adv-x="401" d="M-6 1823l162-185h159l-106 185h-215zm104-1823h221v1505h-221v-1505z"/><glyph unicode="Í" horiz-adv-x="401" d="M82 0h221v1505h-221v-1505zm4 1638h160l162 185h-215z"/><glyph unicode="Î" horiz-adv-x="370" d="M-66 1638h189l61 72 64-72h188l-141 185h-219zm140-1638h221v1505h-221v-1505z"/><glyph unicode="Ï" horiz-adv-x="372" d="M-53 1638h190v201h-190v-201zm129-1638h221v1505h-221v-1505zm160 1638h190v201h-190v-201z"/><glyph unicode="Ð" horiz-adv-x="761" d="M20 655h62v-655h174q156 0 243.5 35.5t131.5 120.5q40 80 52.5 215t12.5 381q0 247-12.5 382.5t-52.5 215.5q-44 85-131 120t-244 35h-174v-622h-62v-228zm283-434v434h84v228h-84v401q63 0 94-15t47-65q18-68 21-160 2-72 2-290 0-219-2-291-3-96-21-160-16-52-47-67t-94-15z"/><glyph unicode="Ñ" horiz-adv-x="808" d="M82 0h203v854h12l18-70 215-784h197v1505h-203v-854h-12l-18 70-215 784h-197v-1505zm125 1632q5 3 33 17 46 16 75 16 52-3 93-20 43-19 88-19 23 0 41 6 41 10 67 33v152q-5-3-33-17-46-16-75-16-44 3-90 22-49 17-91 17-23 0-41-6-42-13-67-33v-152z"/><glyph unicode="Ò" d="M68 309q3-97 36-164 30-67 86-110 63-51 172-51 107 0 170 51 61 46 89 110 33 67 36 164v887q-3 95-36 162-29 67-89 112-69 52-170 52-103 0-172-52-55-42-86-112-33-67-36-162v-887zm53 1514l162-185h159l-106 185h-215zm168-1514v887q0 34 8 55 17 56 65 56 29 0 46-17 28-35 28-94v-887q0-36-8-55-14-55-66-55-27 0-43 16-30 35-30 94z"/><glyph unicode="Ó" d="M68 309q3-97 36-164 30-67 86-110 63-51 172-51 107 0 170 51 61 46 89 110 33 67 36 164v887q-3 95-36 162-29 67-89 112-69 52-170 52-103 0-172-52-55-42-86-112-33-67-36-162v-887zm217 1329h159l162 185h-215zm4-1329v887q0 34 8 55 17 56 65 56 29 0 46-17 28-35 28-94v-887q0-36-8-55-14-55-66-55-27 0-43 16-30 35-30 94z"/><glyph unicode="Ô" d="M68 309q3-97 36-164 30-67 86-110 63-51 172-51 107 0 170 51 61 46 89 110 33 67 36 164v887q-3 95-36 162-29 67-89 112-69 52-170 52-103 0-172-52-55-42-86-112-33-67-36-162v-887zm45 1329h188l61 72 64-72h188l-141 185h-219zm176-1329v887q0 34 8 55 17 56 65 56 29 0 46-17 28-35 28-94v-887q0-36-8-55-14-55-66-55-27 0-43 16-30 35-30 94z"/><glyph unicode="Õ" d="M68 309q3-97 36-164 30-67 86-110 63-51 172-51 107 0 170 51 61 46 89 110 33 67 36 164v887q-3 95-36 162-29 67-89 112-69 52-170 52-103 0-172-52-55-42-86-112-33-67-36-162v-887zm96 1323q5 3 33 17 46 16 75 16 52-3 93-20 43-19 88-19 23 0 41 6 41 10 67 33v152q-5-3-33-17-46-16-75-16-45 3-91 22-49 17-90 17-23 0-41-6-42-13-67-33v-152zm125-1323v887q0 34 8 55 17 56 65 56 29 0 46-17 28-35 28-94v-887q0-36-8-55-14-55-66-55-27 0-43 16-30 35-30 94z"/><glyph unicode="Ö" d="M68 309q3-97 36-164 30-67 86-110 63-51 172-51 107 0 170 51 61 46 89 110 33 67 36 164v887q-3 95-36 162-29 67-89 112-69 52-170 52-103 0-172-52-55-42-86-112-33-67-36-162v-887zm55 1329h190v201h-190v-201zm166-1329v887q0 34 8 55 17 56 65 56 29 0 46-17 28-35 28-94v-887q0-36-8-55-14-55-66-55-27 0-43 16-30 35-30 94zm123 1329h190v201h-190v-201z"/><glyph unicode="Ø" d="M59-20h129l15 47q62-43 159-43 107 0 170 51 61 46 89 110 33 67 36 164v887q0 27-6 57-13 74-39 123l45 150h-122l-15-47q-65 43-158 43-103 0-172-52-55-42-86-112-33-67-36-162v-887q0-19 4-55 15-83 34-117zm230 329l147 488v-488q0-36-8-55-14-55-66-55-27 0-43 16-30 35-30 94zm0 418v469q0 34 8 55 17 56 65 56 44 0 62-41 12-38 12-60z"/><glyph unicode="Ù" horiz-adv-x="749" d="M80 309q3-95 37-164 30-67 86-110 63-51 172-51 107 0 170 51 59 45 88 110 34 69 37 164v1196h-221v-1196q0-34-9-55-14-55-65-55-27 0-43 16-31 36-31 94v1196h-221v-1196zm65 1514l162-185h160l-107 185h-215z"/><glyph unicode="Ú" horiz-adv-x="749" d="M80 309q3-95 37-164 30-67 86-110 63-51 172-51 107 0 170 51 59 45 88 110 34 69 37 164v1196h-221v-1196q0-34-9-55-14-55-65-55-27 0-43 16-31 36-31 94v1196h-221v-1196zm227 1329h160l162 185h-215z"/><glyph unicode="Û" horiz-adv-x="749" d="M80 309q3-95 37-164 30-67 86-110 63-51 172-51 107 0 170 51 59 45 88 110 34 69 37 164v1196h-221v-1196q0-34-9-55-14-55-65-55-27 0-43 16-31 36-31 94v1196h-221v-1196zm45 1329h188l62 72 63-72h189l-142 185h-219z"/><glyph unicode="Ü" horiz-adv-x="749" d="M80 309q3-95 37-164 30-67 86-110 63-51 172-51 107 0 170 51 59 45 88 110 34 69 37 164v1196h-221v-1196q0-34-9-55-14-55-65-55-27 0-43 16-31 36-31 94v1196h-221v-1196zm55 1329h191v201h-191v-201zm289 0h190v201h-190v-201z"/><glyph unicode="Ý" horiz-adv-x="704" d="M16 1505l226-864v-641h221v641l225 864h-217l-111-481-6-14h-4l-6 14-111 481h-217zm238 133h160l161 185h-215z"/><glyph unicode="Þ" d="M82 0h221v360q161 0 266 99 123 116 123 354 0 240-123 356-100 95-266 95h-2v241h-219v-1505zm221 586v452q99 0 135-53 31-46 31-180 0-131-31-172-34-47-135-47z"/><glyph unicode="ß" horiz-adv-x="733" d="M66 0h206v1235q0 44 19 73t55 29q42 0 64-28t22-72q0-53-25-85t-61-32v-141q71 0 96-72 31-88 31-332 0-230-31-315-24-67-96-67v-193q88 0 148 21.5t100 78.5q86 124 86 475 0 220-41 338-37 108-111 150 88 66 88 174 0 124-65 201-71 84-205 84t-213-86q-67-73-67-201v-1235z"/><glyph unicode="à" horiz-adv-x="681" d="M49 260q0-154 64-225 41-51 102-51 60 0 109 39 35 28 57 67h14q0-66 19-90h202q-14 86-14 195v688q0 109-76 182-75 72-176 72-120 0-198-88-80-90-80-211v-47h207v53q0 21 4 53 11 59 55 59 37 0 51-34 6-20 6-68v-123q-2-5-5-9.5t-9-9.5-11.5-8.5-15.5-9-16.5-9-20-10.5-20.5-11q-104-55-162-127-86-107-86-277zm53 1229l162-184h160l-107 184h-215zm150-1198q0 84 35.5 151.5t107.5 98.5v-287q0-29-25-48.5t-61-19.5q-33 0-47 43-10 29-10 62z"/><glyph unicode="á" horiz-adv-x="681" d="M49 260q0-154 64-225 41-51 102-51 60 0 109 39 35 28 57 67h14q0-66 19-90h202q-14 86-14 195v688q0 109-76 182-75 72-176 72-120 0-198-88-80-90-80-211v-47h207v53q0 21 4 53 11 59 55 59 37 0 51-34 6-20 6-68v-123q-2-5-5-9.5t-9-9.5-11.5-8.5-15.5-9-16.5-9-20-10.5-20.5-11q-104-55-162-127-86-107-86-277zm203 31q0 84 35.5 151.5t107.5 98.5v-287q0-29-25-48.5t-61-19.5q-33 0-47 43-10 29-10 62zm12 1014h160l162 184h-215z"/><glyph unicode="â" horiz-adv-x="681" d="M49 260q0-154 64-225 41-51 102-51 60 0 109 39 35 28 57 67h14q0-66 19-90h202q-14 86-14 195v688q0 109-76 182-75 72-176 72-120 0-198-88-80-90-80-211v-47h207v53q0 21 4 53 11 59 55 59 37 0 51-34 6-20 6-68v-123q-2-5-5-9.5t-9-9.5-11.5-8.5-15.5-9-16.5-9-20-10.5-20.5-11q-104-55-162-127-86-107-86-277zm41 1045h189l61 71 63-71h189l-141 184h-220zm162-1014q0 84 35.5 151.5t107.5 98.5v-287q0-29-25-48.5t-61-19.5q-33 0-47 43-10 29-10 62z"/><glyph unicode="ã" horiz-adv-x="681" d="M49 260q0-154 64-225 41-51 102-51 60 0 109 39 35 28 57 67h14q0-66 19-90h202q-14 86-14 195v688q0 109-76 182-75 72-176 72-120 0-198-88-80-90-80-211v-47h207v53q0 21 4 53 11 59 55 59 37 0 51-34 6-20 6-68v-123q-2-5-5-9.5t-9-9.5-11.5-8.5-15.5-9-16.5-9-20-10.5-20.5-11q-104-55-162-127-86-107-86-277zm94 1045q6 3 17.5 8.5t15.5 7.5q46 16 76 16 51-3 92-20 43-19 88-19 20 0 41 7 44 11 68 32v152q-6-3-18-8.5t-15-7.5q-49-17-76-17-41 3-90 23-46 16-90 16-23 0-41-6-43-14-68-33v-151zm109-1014q0 84 35.5 151.5t107.5 98.5v-287q0-29-25-48.5t-61-19.5q-33 0-47 43-10 29-10 62z"/><glyph unicode="ä" horiz-adv-x="681" d="M49 260q0-154 64-225 41-51 102-51 60 0 109 39 35 28 57 67h14q0-66 19-90h202q-14 86-14 195v688q0 109-76 182-75 72-176 72-120 0-198-88-80-90-80-211v-47h207v53q0 21 4 53 11 59 55 59 37 0 51-34 6-20 6-68v-123q-2-5-5-9.5t-9-9.5-11.5-8.5-15.5-9-16.5-9-20-10.5-20.5-11q-104-55-162-127-86-107-86-277zm53 1045h191v200h-191v-200zm150-1014q0 84 35.5 151.5t107.5 98.5v-287q0-29-25-48.5t-61-19.5q-33 0-47 43-10 29-10 62zm139 1014h191v200h-191v-200z"/><glyph unicode="å" horiz-adv-x="681" d="M49 260q0-154 64-225 41-51 102-51 60 0 109 39 35 28 57 67h14q0-66 19-90h202q-14 86-14 195v688q0 109-76 182-75 72-176 72-120 0-198-88-80-90-80-211v-47h207v53q0 21 4 53 11 59 55 59 37 0 51-34 6-20 6-68v-123q-2-5-5-9.5t-9-9.5-11.5-8.5-15.5-9-16.5-9-20-10.5-20.5-11q-104-55-162-127-86-107-86-277zm139 1161q0-62 45-102.5t109-40.5 108 40.5 44 102.5-44 103-108 41-109-41-45-103zm64-1130q0 84 35.5 151.5t107.5 98.5v-287q0-29-25-48.5t-61-19.5q-33 0-47 43-10 29-10 62zm14 1130q0 29 23 50.5t53 21.5 53-21.5 23-50.5-23-50-53-21-53 21-23 50z"/><glyph unicode="æ" horiz-adv-x="989" d="M49 260q0-154 64-225 41-51 102-51 120 0 221 131 67-131 226-131 101 0 155 45 55 44 81.5 102t31.5 141v129h-193v-122q0-37-8-58-14-55-65-55-27 0-43 16-30 39-33 97v243h342v326q-3 71-33 143-67 146-233 146-97 0-162-52-67 52-152 52-120 0-198-88-80-90-80-211v-47h207v53q0 21 4 53 11 59 55 59 37 0 51-34 6-20 6-68v-123q-2-5-5-9.5t-9-9.5-11.5-8.5-15.5-9-16.5-9-20-10.5-20.5-11q-104-55-162-127-86-107-86-277zm203 31q0 84 35.5 151.5t107.5 98.5v-287q0-29-25-48.5t-61-19.5q-33 0-47 43-10 29-10 62zm336 393v158q3 39 10 57 18 57 66 57 29 0 45-16 28-35 28-98v-158h-149z"/><glyph unicode="ç" horiz-adv-x="645" d="M66 315q0-179 75-260 65-71 189-71 136 0 198 67 68 74 68 254v109h-207v-156q0-52-12-71t-47-19q-26 0-39.5 15.5t-16 32-2.5 42.5v604q0 26 2.5 42.5t16 32 39.5 15.5q35 0 47-19t12-71v-135h207v88q0 180-68 254-62 68-198 68-123 0-189-72-75-81-75-260v-490zm172-426v-141h63l-41-133h105l45 133v141h-172z"/><glyph unicode="è" horiz-adv-x="659" d="M66 279q3-78 32-148 66-147 234-147 101 0 155 45 55 44 81.5 102t31.5 141v129h-192v-122q0-34-9-58-14-55-65-55-27 0-43 16-30 39-33 97v243h342v326q-3 71-33 143-67 146-233 146-103 0-154-45-105-87-114-250v-563zm36 1210l162-184h160l-107 184h-215zm156-805v158q3 39 10 57 18 57 66 57 29 0 45-16 29-36 29-98v-158h-150z"/><glyph unicode="é" horiz-adv-x="659" d="M66 279q3-78 32-148 66-147 234-147 101 0 155 45 55 44 81.5 102t31.5 141v129h-192v-122q0-34-9-58-14-55-65-55-27 0-43 16-30 39-33 97v243h342v326q-3 71-33 143-67 146-233 146-103 0-154-45-105-87-114-250v-563zm192 405v158q3 39 10 57 18 57 66 57 29 0 45-16 29-36 29-98v-158h-150zm6 621h160l162 184h-215z"/><glyph unicode="ê" horiz-adv-x="659" d="M66 279q3-78 32-148 66-147 234-147 101 0 155 45 55 44 81.5 102t31.5 141v129h-192v-122q0-34-9-58-14-55-65-55-27 0-43 16-30 39-33 97v243h342v326q-3 71-33 143-67 146-233 146-103 0-154-45-105-87-114-250v-563zm14 1026h188l62 71 63-71h189l-142 184h-219zm178-621v158q3 39 10 57 18 57 66 57 29 0 45-16 29-36 29-98v-158h-150z"/><glyph unicode="ë" horiz-adv-x="659" d="M66 279q3-78 32-148 66-147 234-147 101 0 155 45 55 44 81.5 102t31.5 141v129h-192v-122q0-34-9-58-14-55-65-55-27 0-43 16-30 39-33 97v243h342v326q-3 71-33 143-67 146-233 146-103 0-154-45-105-87-114-250v-563zm24 1026h191v200h-191v-200zm168-621v158q3 39 10 57 18 57 66 57 29 0 45-16 29-36 29-98v-158h-150zm121 621h190v200h-190v-200z"/><glyph unicode="ì" horiz-adv-x="370" d="M-33 1489l162-184h160l-107 184h-215zm115-1489h207v1120h-207v-1120z"/><glyph unicode="í" horiz-adv-x="370" d="M82 0h207v1120h-207v-1120zm0 1305h160l161 184h-215z"/><glyph unicode="î" horiz-adv-x="370" d="M-66 1305h189l61 71 64-71h188l-141 184h-219zm148-1305h207v1120h-207v-1120z"/><glyph unicode="ï" horiz-adv-x="372" d="M-53 1305h190v200h-190v-200zm135-1305h207v1120h-207v-1120zm154 1305h190v200h-190v-200z"/><glyph unicode="ð" horiz-adv-x="673" d="M76 279q3-76 33-148 66-147 231-147 102 0 156 45 53 44 79 102t31 141v656q0 252-125 446l101 88-56 66-94-82-18 24-19 19q-3 3-8 9t-8 9l-109-100q2-5 13-16 7-8 32-50l-100-88 55-63 82 72q36-81 51-203-91 78-155 78-113 0-152-123-20-66-20-156v-579zm194 0v563q-3 33 6 57 15 57 64 57 29 0 45-16 30-37 27-98v-563q3-34-6-58-14-55-66-55-27 0-43 16-30 38-27 97z"/><glyph unicode="ñ" horiz-adv-x="690" d="M82 0h207v883q6 10 18 26 27 27 49 27 50 0 50-49v-887h206v918q0 81-37 145-45 74-118 74-27 0-54-15-37-20-90-73-22-22-24-23v94h-207v-1120zm65 1305q6 3 18 8.5t15 7.5q46 16 76 16 51-3 92-20 43-19 88-19 20 0 41 7 44 11 68 32v152q-6-3-18-8.5t-15-7.5q-49-17-76-17-41 3-90 23-46 16-90 16-23 0-41-6-43-14-68-33v-151z"/><glyph unicode="ò" horiz-adv-x="657" d="M63 279q3-76 33-148 66-147 232-147 101 0 155 45 54 44 80 102.5t31 140.5v576q-3 71-33 143-67 146-233 146-103 0-154-45-102-86-111-250v-563zm35 1210l162-184h160l-107 184h-215zm160-1210v563q-3 33 6 57 15 57 64 57 29 0 45-16 29-36 26-98v-563q3-34-6-58-14-55-65-55-27 0-43 16-30 38-27 97z"/><glyph unicode="ó" horiz-adv-x="657" d="M63 279q3-76 33-148 66-147 232-147 101 0 155 45 54 44 80 102.5t31 140.5v576q-3 71-33 143-67 146-233 146-103 0-154-45-102-86-111-250v-563zm195 0v563q-3 33 6 57 15 57 64 57 29 0 45-16 29-36 26-98v-563q3-34-6-58-14-55-65-55-27 0-43 16-30 38-27 97zm2 1026h160l162 184h-215z"/><glyph unicode="ô" horiz-adv-x="657" d="M63 279q3-76 33-148 66-147 232-147 101 0 155 45 54 44 80 102.5t31 140.5v576q-3 71-33 143-67 146-233 146-103 0-154-45-102-86-111-250v-563zm15 1026h188l62 71 63-71h189l-142 184h-219zm180-1026v563q-3 33 6 57 15 57 64 57 29 0 45-16 29-36 26-98v-563q3-34-6-58-14-55-65-55-27 0-43 16-30 38-27 97z"/><glyph unicode="õ" horiz-adv-x="657" d="M63 279q3-76 33-148 66-147 232-147 101 0 155 45 54 44 80 102.5t31 140.5v576q-3 71-33 143-67 146-233 146-103 0-154-45-102-86-111-250v-563zm68 1026q6 3 17.5 8.5t15.5 7.5q46 16 76 16 51-3 92-20 43-19 88-19 20 0 41 7 42 10 67 32v152l-32-16q-49-17-76-17-41 3-90 23-46 16-90 16-23 0-41-6-43-14-68-33v-151zm127-1026v563q-3 33 6 57 15 57 64 57 29 0 45-16 29-36 26-98v-563q3-34-6-58-14-55-65-55-27 0-43 16-30 38-27 97z"/><glyph unicode="ö" horiz-adv-x="657" d="M63 279q3-76 33-148 66-147 232-147 101 0 155 45 54 44 80 102.5t31 140.5v576q-3 71-33 143-67 146-233 146-103 0-154-45-102-86-111-250v-563zm27 1026h191v200h-191v-200zm168-1026v563q-3 33 6 57 15 57 64 57 29 0 45-16 29-36 26-98v-563q3-34-6-58-14-55-65-55-27 0-43 16-30 38-27 97zm121 1026h190v200h-190v-200z"/><glyph unicode="ø" horiz-adv-x="657" d="M63 279q0-37 11-86 19-92 82-150l-31-121h80l20 78q50-16 103-16 101 0 155 45 54 44 80 102.5t31 140.5v576q-3 44-12 84-29 96-82 145l30 121h-75l-21-80q-59 19-106 19-103 0-154-45-102-86-111-250v-563zm195 157v406q-3 33 6 57 15 57 64 57 40 0 55-34zm16-239l125 485v-403q3-34-6-58-14-55-65-55-38 0-54 31z"/><glyph unicode="ù" horiz-adv-x="690" d="M78 203q0-83 37-144 44-75 118-75 27 0 56 16 35 19 90 74 18 18 22 20v-94h207v1120h-207v-882q-13-22-18-27-27-27-49-27-23 0-36 10t-13 39v887h-207v-917zm35 1286l161-184h160l-106 184h-215z"/><glyph unicode="ú" horiz-adv-x="690" d="M78 203q0-83 37-144 44-75 118-75 27 0 56 16 35 19 90 74 18 18 22 20v-94h207v1120h-207v-882q-13-22-18-27-27-27-49-27-23 0-36 10t-13 39v887h-207v-917zm196 1102h160l162 184h-215z"/><glyph unicode="û" horiz-adv-x="690" d="M78 203q0-83 37-144 44-75 118-75 27 0 56 16 35 19 90 74 18 18 22 20v-94h207v1120h-207v-882q-13-22-18-27-27-27-49-27-23 0-36 10t-13 39v887h-207v-917zm16 1102h189l61 71 64-71h188l-141 184h-219z"/><glyph unicode="ü" horiz-adv-x="690" d="M78 203q0-83 37-144 44-75 118-75 27 0 56 16 35 19 90 74 18 18 22 20v-94h207v1120h-207v-882q-13-22-18-27-27-27-49-27-23 0-36 10t-13 39v887h-207v-917zm28 1102h191v200h-191v-200zm289 0h191v200h-191v-200z"/><glyph unicode="ý" horiz-adv-x="634" d="M25 1120l190-1153q0-34-8-61-18-65-68-103-21-16-55.5-19t-38.5 1q-10 0-12 2v-184q50-4 67-4h25q114 0 197 100 74 89 90 217l198 1204h-202l-82-688-4-57h-9l-4 57-82 688h-202zm206 185h160l162 184h-215z"/><glyph unicode="þ" horiz-adv-x="686" d="M82-385h207v459q34-30 53-45 61-45 111-45 75 0 122 75 37 61 37 144v715q0 81-37 145-49 74-122 74-31 0-58-15-50-22-106-75v458h-207v-1890zm207 631v628q0 29 18.5 48.5t42.5 19.5q23 0 39.5-19.5t16.5-48.5v-628q0-29-16.5-48.5t-39.5-19.5-42 21.5-19 46.5z"/><glyph unicode="ÿ" horiz-adv-x="634" d="M25 1120l190-1153q0-34-8-61-18-65-68-103-21-16-55.5-19t-38.5 1q-10 0-12 2v-184q50-4 67-4h25q114 0 197 100 74 89 90 217l198 1204h-202l-82-688-4-57h-9l-4 57-82 688h-202zm53 185h190v200h-190v-200zm289 0h190v200h-190v-200z"/><glyph unicode="Œ" horiz-adv-x="983" d="M68 309q3-91 36-155 30-66 86-105 69-49 172-49h580v227h-285v414h205v242h-205v395h285v227h-580q-106 0-172-47-54-38-86-108-33-64-36-154v-887zm221 0v887q0 34 8 55 17 56 65 56 42 0 60-37 14-28 14-60v-901q0-36-8-55-14-55-66-55-27 0-43 16-30 35-30 94z"/><glyph unicode="œ" horiz-adv-x="995" d="M63 279q3-76 33-148 66-147 232-147 103 0 170 57 64-57 170-57 101 0 155 45 55 44 81.5 102t31.5 141v129h-193v-122q0-37-8-58-14-55-65-55-45 0-64 47-12 30-12 59v250h342v326q-3 71-33 143-67 146-233 146-103 0-170-60-67 60-172 60-103 0-154-45-102-86-111-250v-563zm195 0v563q-3 33 6 57 15 57 64 57 29 0 45-16 29-36 26-98v-563q3-34-6-58-14-55-65-55-27 0-43 16-30 38-27 97zm336 405v164q0 31 12 61 19 47 64 47 29 0 45-16 28-35 28-98v-158h-149z"/><glyph unicode="Ÿ" horiz-adv-x="704" d="M16 1505l226-864v-641h221v641l225 864h-217l-111-481-6-14h-4l-6 14-111 481h-217zm97 133h190v201h-190v-201zm288 0h191v201h-191v-201z"/><glyph unicode="ˆ" horiz-adv-x="1021" d="M260 1305h189l61 71 63-71h189l-141 184h-220z"/><glyph unicode="˜" horiz-adv-x="1024" d="M313 1305q6 3 17.5 8.5t15.5 7.5q46 16 76 16 51-3 92-20 43-19 88-19 20 0 41 7 44 11 68 32v152q-6-3-17.5-8.5t-15.5-7.5q-49-17-76-17-41 3-90 23-46 16-90 16-23 0-41-6-43-14-68-33v-151z"/><glyph horiz-adv-x="952"/><glyph horiz-adv-x="1905"/><glyph horiz-adv-x="952"/><glyph horiz-adv-x="1905"/><glyph horiz-adv-x="635"/><glyph horiz-adv-x="476"/><glyph horiz-adv-x="317"/><glyph horiz-adv-x="317"/><glyph horiz-adv-x="238"/><glyph horiz-adv-x="381"/><glyph horiz-adv-x="105"/><glyph unicode="‐" horiz-adv-x="444" d="M74 455h297v194h-297v-194z"/><glyph unicode="‑" horiz-adv-x="444" d="M74 455h297v194h-297v-194z"/><glyph unicode="‒" horiz-adv-x="444" d="M74 455h297v194h-297v-194z"/><glyph unicode="–" horiz-adv-x="806" d="M74 649h659v195h-659v-195z"/><glyph unicode="—" horiz-adv-x="972" d="M74 649h825v195h-825v-195z"/><glyph unicode="‘" horiz-adv-x="309" d="M49 1012h215v227h-71l71 266h-102l-113-266v-227z"/><glyph unicode="’" horiz-adv-x="309" d="M45 1012h102l113 266v227h-215v-227h72z"/><glyph unicode="‚" horiz-adv-x="309" d="M45 0h72l-72-266h102l113 266v227h-215v-227z"/><glyph unicode="“" horiz-adv-x="624" d="M53 1012h215v227h-71l71 266h-102l-113-266v-227zm303 0h215v227h-71l71 266h-102l-113-266v-227z"/><glyph unicode="”" horiz-adv-x="624" d="M53 1012h103l112 266v227h-215v-227h72zm303 0h103l112 266v227h-215v-227h72z"/><glyph unicode="„" horiz-adv-x="624" d="M53 0h72l-72-266h103l112 266v227h-215v-227zm303 0h72l-72-266h103l112 266v227h-215v-227z"/><glyph unicode="•" horiz-adv-x="663" d="M82 817q0-104 74-178t178-74q102 0 176 74 72 72 72 178 0 104-72 176t-176 72q-106 0-178-72-74-74-74-176z"/><glyph unicode="…" horiz-adv-x="964" d="M53 0h215v227h-215v-227zm322 0h215v227h-215v-227zm321 0h215v227h-215v-227z"/><glyph horiz-adv-x="381"/><glyph horiz-adv-x="476"/><glyph unicode="€" horiz-adv-x="813" d="M53 547h107v-238q3-95 37-164 30-67 86-110 63-51 172-51 107 0 170 51 59 45 88 110 34 69 37 164v84h-207v-84q0-36-8-55-18-55-76-55-27 0-43 16-32 37-35 94v238h233v137h-233v137h233v137h-233v238q4 39 10 55 21 56 68 56 34 0 51-17 33-36 33-94v-84h207v84q-3 93-37 162-30 68-88 112-69 52-170 52-103 0-172-52-55-42-86-112-34-69-37-162v-238h-107v-137h107v-137h-107v-137z"/><glyph unicode="™" horiz-adv-x="937" d="M74 1401h104v-580h113v580h104v104h-321v-104zm366-580h103v449l80-449h51l78 449v-449h104v684h-137l-68-319h-6l-67 319h-138v-684z"/><glyph unicode="" horiz-adv-x="1116" d="M0 0v1116h1116v-1116h-1116z"/><glyph unicode="ﬁ" horiz-adv-x="772" d="M20 934h105v-934h207v934h151v-934h207v1120h-358v80q0 35 8 62 18 71 76 71 28 0 82-6 20-4 28-6v184q-7 1-22.5 3t-22.5 3q-40 9-102 9-167 0-223-140-31-73-31-229v-31h-105v-186z"/><glyph unicode="ﬂ" horiz-adv-x="772" d="M20 934h105v-934h207v934h104v186h-104v80q0 35 8 62 18 71 76 71 31 0 67-4v-1329h207v1505h-164q-7 1-22.5 3t-22.5 3q-40 9-102 9-167 0-223-140-31-73-31-229v-31h-105v-186z"/></font>
</defs>
</svg>
